<mxfile host="app.diagrams.net" modified="2024-05-20T11:48:41.480Z" agent="Mozilla/5.0 (Windows NT 10.0; Win64; x64) AppleWebKit/537.36 (KHTML, like Gecko) Chrome/109.0.0.0 Safari/537.36 SLBrowser/9.0.3.4111 SLBChan/128" etag="iut86EY2rc__JP-frb1h" version="24.4.4" type="github">
  <diagram id="C5RBs43oDa-KdzZeNtuy" name="Page-1">
    <mxGraphModel dx="763" dy="411" grid="0" gridSize="10" guides="1" tooltips="1" connect="1" arrows="1" fold="1" page="1" pageScale="1" pageWidth="827" pageHeight="1169" math="0" shadow="0">
      <root>
        <mxCell id="WIyWlLk6GJQsqaUBKTNV-0" />
        <mxCell id="WIyWlLk6GJQsqaUBKTNV-1" parent="WIyWlLk6GJQsqaUBKTNV-0" />
        <mxCell id="yIs3c5PNuvxmdxBRgSST-6" value="" style="edgeStyle=orthogonalEdgeStyle;rounded=0;orthogonalLoop=1;jettySize=auto;html=1;" edge="1" parent="WIyWlLk6GJQsqaUBKTNV-1" source="WIyWlLk6GJQsqaUBKTNV-3" target="yIs3c5PNuvxmdxBRgSST-1">
          <mxGeometry relative="1" as="geometry" />
        </mxCell>
        <mxCell id="WIyWlLk6GJQsqaUBKTNV-3" value="&lt;font style=&quot;font-size: 13px;&quot; face=&quot;宋体&quot;&gt;开始&lt;/font&gt;" style="rounded=1;whiteSpace=wrap;html=1;fontSize=12;glass=0;strokeWidth=1;shadow=0;" parent="WIyWlLk6GJQsqaUBKTNV-1" vertex="1">
          <mxGeometry x="331.01" y="78" width="120" height="40" as="geometry" />
        </mxCell>
        <mxCell id="yIs3c5PNuvxmdxBRgSST-90" value="" style="edgeStyle=orthogonalEdgeStyle;rounded=0;orthogonalLoop=1;jettySize=auto;html=1;" edge="1" parent="WIyWlLk6GJQsqaUBKTNV-1" source="yIs3c5PNuvxmdxBRgSST-1" target="yIs3c5PNuvxmdxBRgSST-89">
          <mxGeometry relative="1" as="geometry" />
        </mxCell>
        <mxCell id="yIs3c5PNuvxmdxBRgSST-1" value="&lt;font face=&quot;宋体&quot; style=&quot;font-size: 13px;&quot;&gt;活动报名&lt;/font&gt;" style="rounded=0;whiteSpace=wrap;html=1;" vertex="1" parent="WIyWlLk6GJQsqaUBKTNV-1">
          <mxGeometry x="331.01" y="156" width="119" height="54" as="geometry" />
        </mxCell>
        <mxCell id="yIs3c5PNuvxmdxBRgSST-62" value="&lt;font face=&quot;宋体&quot;&gt;打开活动信息&lt;/font&gt;" style="text;html=1;align=center;verticalAlign=middle;resizable=0;points=[];autosize=1;strokeColor=none;fillColor=none;" vertex="1" parent="WIyWlLk6GJQsqaUBKTNV-1">
          <mxGeometry x="399" y="124" width="90" height="26" as="geometry" />
        </mxCell>
        <mxCell id="yIs3c5PNuvxmdxBRgSST-87" value="&lt;font style=&quot;font-size: 13px;&quot; face=&quot;宋体&quot;&gt;结束&lt;/font&gt;" style="rounded=1;whiteSpace=wrap;html=1;fontSize=12;glass=0;strokeWidth=1;shadow=0;" vertex="1" parent="WIyWlLk6GJQsqaUBKTNV-1">
          <mxGeometry x="331.01" y="438" width="120" height="40" as="geometry" />
        </mxCell>
        <mxCell id="yIs3c5PNuvxmdxBRgSST-92" value="" style="edgeStyle=orthogonalEdgeStyle;rounded=0;orthogonalLoop=1;jettySize=auto;html=1;" edge="1" parent="WIyWlLk6GJQsqaUBKTNV-1" source="yIs3c5PNuvxmdxBRgSST-89" target="yIs3c5PNuvxmdxBRgSST-91">
          <mxGeometry relative="1" as="geometry" />
        </mxCell>
        <mxCell id="yIs3c5PNuvxmdxBRgSST-95" value="" style="edgeStyle=orthogonalEdgeStyle;rounded=0;orthogonalLoop=1;jettySize=auto;html=1;" edge="1" parent="WIyWlLk6GJQsqaUBKTNV-1" source="yIs3c5PNuvxmdxBRgSST-89" target="yIs3c5PNuvxmdxBRgSST-94">
          <mxGeometry relative="1" as="geometry" />
        </mxCell>
        <mxCell id="yIs3c5PNuvxmdxBRgSST-89" value="&lt;font face=&quot;宋体&quot;&gt;是否通过审核&lt;/font&gt;" style="rhombus;whiteSpace=wrap;html=1;rounded=0;" vertex="1" parent="WIyWlLk6GJQsqaUBKTNV-1">
          <mxGeometry x="313.77" y="240.5" width="153.49" height="79" as="geometry" />
        </mxCell>
        <mxCell id="yIs3c5PNuvxmdxBRgSST-101" value="" style="edgeStyle=orthogonalEdgeStyle;rounded=0;orthogonalLoop=1;jettySize=auto;html=1;" edge="1" parent="WIyWlLk6GJQsqaUBKTNV-1" source="yIs3c5PNuvxmdxBRgSST-91" target="yIs3c5PNuvxmdxBRgSST-87">
          <mxGeometry relative="1" as="geometry" />
        </mxCell>
        <mxCell id="yIs3c5PNuvxmdxBRgSST-91" value="&lt;font face=&quot;宋体&quot;&gt;进行反馈&lt;/font&gt;" style="whiteSpace=wrap;html=1;rounded=0;" vertex="1" parent="WIyWlLk6GJQsqaUBKTNV-1">
          <mxGeometry x="331.005" y="352" width="120" height="60" as="geometry" />
        </mxCell>
        <mxCell id="yIs3c5PNuvxmdxBRgSST-93" value="&lt;font face=&quot;宋体&quot;&gt;是&lt;/font&gt;" style="text;html=1;align=center;verticalAlign=middle;resizable=0;points=[];autosize=1;strokeColor=none;fillColor=none;" vertex="1" parent="WIyWlLk6GJQsqaUBKTNV-1">
          <mxGeometry x="399" y="317" width="30" height="26" as="geometry" />
        </mxCell>
        <mxCell id="yIs3c5PNuvxmdxBRgSST-94" value="&lt;font face=&quot;宋体&quot;&gt;提示通过审核方可进行反馈&lt;/font&gt;" style="whiteSpace=wrap;html=1;rounded=0;" vertex="1" parent="WIyWlLk6GJQsqaUBKTNV-1">
          <mxGeometry x="518.495" y="250" width="120" height="60" as="geometry" />
        </mxCell>
        <mxCell id="yIs3c5PNuvxmdxBRgSST-96" value="&lt;font face=&quot;宋体&quot;&gt;否&lt;/font&gt;" style="text;html=1;align=center;verticalAlign=middle;resizable=0;points=[];autosize=1;strokeColor=none;fillColor=none;" vertex="1" parent="WIyWlLk6GJQsqaUBKTNV-1">
          <mxGeometry x="473" y="255" width="30" height="26" as="geometry" />
        </mxCell>
        <mxCell id="yIs3c5PNuvxmdxBRgSST-102" value="" style="endArrow=classic;html=1;rounded=0;exitX=0.5;exitY=1;exitDx=0;exitDy=0;" edge="1" parent="WIyWlLk6GJQsqaUBKTNV-1" source="yIs3c5PNuvxmdxBRgSST-94">
          <mxGeometry width="50" height="50" relative="1" as="geometry">
            <mxPoint x="499" y="456" as="sourcePoint" />
            <mxPoint x="390" y="424" as="targetPoint" />
            <Array as="points">
              <mxPoint x="578" y="424" />
            </Array>
          </mxGeometry>
        </mxCell>
      </root>
    </mxGraphModel>
  </diagram>
</mxfile>
